<svg width="64" height="64" viewBox="0 0 64 64" fill="none" xmlns="http://www.w3.org/2000/svg">
<mask id="mask0_105_1599" style="mask-type:alpha" maskUnits="userSpaceOnUse" x="0" y="0" width="64" height="64">
<path d="M32 64C49.6731 64 64 49.6731 64 32C64 14.3269 49.6731 0 32 0C14.3269 0 0 14.3269 0 32C0 49.6731 14.3269 64 32 64Z" fill="white"/>
</mask>
<g mask="url(#mask0_105_1599)">
<path d="M0 0H19.475L23.85 31.825L19.475 64H0V0Z" fill="#EEEEEE"/>
<path d="M19.4751 0H64.0001V43.1375L41.1251 47.8125L19.4751 43.1375V0Z" fill="#A2001D"/>
<path d="M19.4751 43.1367H64.0001V63.9992H19.4751V43.1367Z" fill="#6DA544"/>
<path d="M6.2501 0.0253906L2.7876 6.25039L6.2626 12.5504L9.7376 6.25039L6.2501 0.0253906ZM13.2251 0.0253906L9.7501 6.25039L13.2126 12.5504L16.7126 6.25039L13.2251 0.0253906ZM6.2501 17.1879L2.7876 23.3879L6.2626 29.7004L9.7251 23.3879L6.2501 17.1879ZM13.2251 17.1879L9.7501 23.3879L13.2126 29.7004L16.7126 23.3879L13.2251 17.1879ZM6.2501 34.3379L2.7876 40.5504L6.2626 46.8504L9.7376 40.5504L6.2501 34.3379ZM13.2251 34.3379L9.7501 40.5504L13.2126 46.8504L16.7126 40.5504L13.2251 34.3379ZM6.2501 51.5004L2.7876 57.7004L6.2626 64.0129L9.7251 57.7004L6.2501 51.5004ZM13.2251 51.5004L9.7501 57.7004L13.2126 64.0129L16.7126 57.7004L13.2251 51.5004Z" fill="#A2001D"/>
</g>
</svg>
