<svg width="64" height="64" viewBox="0 0 64 64" fill="none" xmlns="http://www.w3.org/2000/svg">
<path fill-rule="evenodd" clip-rule="evenodd" d="M13.9999 6H14.9999H20.9999H21.9999V7V22V27.0787C22.4099 26.1142 22.9909 25.1499 23.8156 24.3251C25.4109 22.7298 27.5284 22.0467 29.1588 21.7485C29.9854 21.5973 30.717 21.5395 31.2437 21.5194C31.5077 21.5093 31.722 21.5086 31.8731 21.5105C31.9487 21.5115 32.0086 21.5132 32.0512 21.5147C32.0725 21.5154 32.0895 21.5161 32.102 21.5167L32.1172 21.5174L32.1222 21.5177L32.1241 21.5178L32.1249 21.5178C32.1252 21.5178 32.1255 21.5178 32.0704 22.5163C33.0689 22.4612 33.0689 22.4616 33.069 22.4619L33.069 22.4627L33.0691 22.4645L33.0694 22.4696L33.0701 22.4848L33.0721 22.5355C33.0736 22.5781 33.0752 22.6381 33.0762 22.7137C33.0782 22.8648 33.0775 23.0791 33.0674 23.3431C33.0473 23.8697 32.9895 24.6014 32.8383 25.428C32.5401 27.0584 31.8569 29.1758 30.2616 30.7711C28.6664 32.3664 26.5489 33.0495 24.9185 33.3478C24.0919 33.499 23.3603 33.5567 22.8336 33.5769C22.5696 33.587 22.3553 33.5877 22.2042 33.5857C22.1286 33.5847 22.0686 33.5831 22.026 33.5816L21.9999 33.5806V46V57V58H20.9999H14.9999H13.9999V57V46.5841C13.9234 46.5826 13.8409 46.5802 13.7528 46.5769C13.2261 46.5567 12.4945 46.499 11.6679 46.3478C10.0375 46.0495 7.92001 45.3664 6.32473 43.7711C4.72945 42.1758 4.04632 40.0584 3.74809 38.428C3.5969 37.6014 3.53913 36.8697 3.51899 36.3431C3.50889 36.0791 3.50819 35.8648 3.51015 35.7137C3.51114 35.6381 3.51279 35.5781 3.51428 35.5355C3.51503 35.5142 3.51574 35.4972 3.5163 35.4848L3.51703 35.4696L3.51729 35.4645L3.51739 35.4627L3.51743 35.4619C3.51745 35.4616 3.51746 35.4612 4.51594 35.5163C4.46086 34.5179 4.46118 34.5178 4.46151 34.5178L4.46228 34.5178L4.46413 34.5177L4.46916 34.5174L4.48441 34.5167L4.53514 34.5147C4.57773 34.5132 4.63767 34.5115 4.71328 34.5105C4.86439 34.5086 5.07869 34.5093 5.34269 34.5194C5.86934 34.5395 6.60101 34.5973 7.4276 34.7485C9.05801 35.0467 11.1755 35.7298 12.7707 37.3251C13.2617 37.8161 13.6663 38.3566 13.9999 38.9171V33V23.5841C13.9234 23.5826 13.8409 23.5802 13.7528 23.5769C13.2262 23.5567 12.4945 23.499 11.6679 23.3478C10.0375 23.0495 7.92006 22.3664 6.32478 20.7711C4.7295 19.1758 4.04637 17.0584 3.74814 15.428C3.59695 14.6014 3.53918 13.8697 3.51904 13.3431C3.50894 13.0791 3.50824 12.8648 3.5102 12.7137C3.51119 12.6381 3.51284 12.5781 3.51433 12.5355C3.51508 12.5142 3.51579 12.4972 3.51635 12.4848L3.51708 12.4696L3.51734 12.4645L3.51744 12.4627L3.51748 12.4619C3.5175 12.4616 3.51751 12.4612 4.516 12.5163C4.46091 11.5179 4.46123 11.5178 4.46156 11.5178L4.46233 11.5178L4.46418 11.5177L4.46921 11.5174L4.48446 11.5167C4.49691 11.5161 4.51389 11.5154 4.53519 11.5147C4.57778 11.5132 4.63772 11.5115 4.71333 11.5105C4.86444 11.5086 5.07874 11.5093 5.34274 11.5194C5.86939 11.5395 6.60106 11.5973 7.42765 11.7485C9.05806 12.0467 11.1755 12.7298 12.7708 14.3251C13.2618 14.8161 13.6664 15.3566 13.9999 15.917V7V6ZM4.516 12.5163L3.51751 12.4612C3.54559 11.9523 3.95197 11.5459 4.46091 11.5179L4.516 12.5163ZM4.51594 35.5163L3.51746 35.4612C3.54554 34.9523 3.95192 34.5459 4.46086 34.5179L4.51594 35.5163ZM32.0704 22.5163L32.1255 21.5178C32.6345 21.5459 33.0408 21.9523 33.0689 22.4612L32.0704 22.5163ZM15.9999 8V21H19.9999V8H15.9999ZM19.9999 23H15.9999V32H19.9999V23ZM19.9999 34H15.9999V45H19.9999V34ZM19.9999 47H15.9999V56H19.9999V47ZM42 6H43H49H50V7V21.0784C50.41 20.114 50.991 19.1498 51.8156 18.3251C53.4109 16.7298 55.5284 16.0467 57.1588 15.7485C57.9854 15.5973 58.717 15.5395 59.2437 15.5194C59.5077 15.5093 59.722 15.5086 59.8731 15.5105C59.9487 15.5115 60.0087 15.5132 60.0512 15.5147C60.0725 15.5154 60.0895 15.5161 60.102 15.5167L60.1172 15.5174L60.1222 15.5177L60.1241 15.5178L60.1249 15.5178C60.1252 15.5178 60.1255 15.5178 60.0704 16.5163C61.0689 16.4612 61.0689 16.4616 61.069 16.4619L61.069 16.4627L61.0691 16.4645L61.0694 16.4696L61.0701 16.4848C61.0706 16.4972 61.0714 16.5142 61.0721 16.5355C61.0736 16.5781 61.0752 16.6381 61.0762 16.7137C61.0782 16.8648 61.0775 17.0791 61.0674 17.3431C61.0472 17.8697 60.9895 18.6014 60.8383 19.428C60.5401 21.0584 59.8569 23.1758 58.2616 24.7711C56.6664 26.3664 54.5489 27.0495 52.9185 27.3478C52.0919 27.499 51.3603 27.5567 50.8336 27.5769C50.5696 27.587 50.3553 27.5877 50.2042 27.5857C50.1286 27.5847 50.0686 27.5831 50.026 27.5816C50.0165 27.5812 50.0078 27.5809 50 27.5806V33V46V57V58H49H43H42V57V50.5841C41.9235 50.5826 41.8409 50.5802 41.7528 50.5769C41.2261 50.5567 40.4945 50.499 39.6679 50.3478C38.0375 50.0495 35.92 49.3664 34.3247 47.7711C32.7295 46.1758 32.0463 44.0584 31.7481 42.428C31.5969 41.6014 31.5391 40.8697 31.519 40.3431C31.5089 40.0791 31.5082 39.8648 31.5102 39.7137C31.5111 39.6381 31.5128 39.5781 31.5143 39.5355L31.5163 39.4848L31.517 39.4696L31.5173 39.4645L31.5174 39.4627L31.5174 39.4619C31.5174 39.4616 31.5175 39.4612 32.5159 39.5163C32.4609 38.5178 32.4612 38.5178 32.4615 38.5178L32.4623 38.5178L32.4641 38.5177L32.4692 38.5174L32.4844 38.5167C32.4969 38.5161 32.5138 38.5154 32.5351 38.5147C32.5777 38.5132 32.6377 38.5115 32.7133 38.5105C32.8644 38.5086 33.0787 38.5093 33.3427 38.5194C33.8693 38.5395 34.601 38.5973 35.4276 38.7485C37.058 39.0467 39.1755 39.7298 40.7707 41.3251C41.2618 41.8162 41.6665 42.3568 42 42.9174V33V22V7V6ZM32.5159 39.5163L31.5175 39.4612C31.5455 38.9523 31.9519 38.5459 32.4609 38.5178L32.5159 39.5163ZM50 26.7033C50.0022 26.664 50.0045 26.6229 50.0069 26.5799L50 26.7033V26.7033ZM60.0704 16.5163L61.0689 16.4612C61.0408 15.9523 60.6345 15.5459 60.1255 15.5178L60.0704 16.5163ZM44 8V21H48V8H44ZM48 23H44V32H48V23ZM48 34H44V45H48V34ZM48 47H44V56H48V47ZM13.3801 20.0281C13.4868 20.6118 13.5398 21.1427 13.565 21.5654C13.1424 21.5401 12.6115 21.4872 12.0278 21.3804C10.5791 21.1154 8.9227 20.5406 7.739 19.3569C6.55529 18.1732 5.98049 16.5168 5.7155 15.0681C5.60874 14.4844 5.55577 13.9535 5.53054 13.5309C5.95318 13.5561 6.48409 13.6091 7.06779 13.7158C8.51648 13.9808 10.1729 14.5556 11.3566 15.7393C12.5403 16.923 13.1151 18.5794 13.3801 20.0281ZM13.565 44.5654C13.5397 44.1427 13.4868 43.6118 13.38 43.0281C13.115 41.5794 12.5402 39.923 11.3565 38.7393C10.1728 37.5556 8.51643 36.9808 7.06774 36.7158C6.48404 36.6091 5.95313 36.5561 5.53049 36.5309C5.55572 36.9535 5.60869 37.4844 5.71545 38.0681C5.98044 39.5168 6.55524 41.1732 7.73895 42.3569C8.92265 43.5406 10.579 44.1154 12.0277 44.3804C12.6114 44.4872 13.1423 44.5401 13.565 44.5654ZM41.38 47.0281C41.4868 47.6118 41.5397 48.1427 41.565 48.5654C41.1423 48.5401 40.6114 48.4872 40.0277 48.3804C38.579 48.1154 36.9226 47.5406 35.7389 46.3569C34.5552 45.1732 33.9804 43.5168 33.7155 42.0681C33.6087 41.4844 33.5557 40.9535 33.5305 40.5309C33.9531 40.5561 34.484 40.6091 35.0677 40.7158C36.5164 40.9808 38.1728 41.5556 39.3565 42.7393C40.5402 43.923 41.115 45.5794 41.38 47.0281ZM23.0214 31.5654C23.0466 31.1427 23.0996 30.6118 23.2064 30.0281C23.4713 28.5794 24.0462 26.923 25.2299 25.7393C26.4136 24.5556 28.07 23.9808 29.5186 23.7158C30.1023 23.6091 30.6333 23.5561 31.0559 23.5309C31.0307 23.9535 30.9777 24.4844 30.8709 25.0681C30.6059 26.5168 30.0311 28.1732 28.8474 29.3569C27.6637 30.5406 26.0073 31.1154 24.5587 31.3804C23.975 31.4872 23.444 31.5401 23.0214 31.5654ZM51.2064 24.0281C51.0996 24.6118 51.0466 25.1427 51.0214 25.5654C51.444 25.5401 51.9749 25.4872 52.5587 25.3804C54.0073 25.1154 55.6637 24.5406 56.8474 23.3569C58.0311 22.1732 58.6059 20.5168 58.8709 19.0681C58.9777 18.4844 59.0307 17.9535 59.0559 17.5309C58.6333 17.5561 58.1023 17.6091 57.5186 17.7158C56.07 17.9808 54.4136 18.5556 53.2299 19.7393C52.0462 20.923 51.4713 22.5794 51.2064 24.0281Z" fill="black"/>
</svg>
