<svg width="64" height="64" viewBox="0 0 64 64" fill="none" xmlns="http://www.w3.org/2000/svg">
<path d="M32.3422 13C18.5341 13 6.76861 21.7457 2.28296 34L20 40.4834C20.8948 37.6556 24.6159 32 32.3422 32C40.0684 32 43.6667 37.7006 44.5 40.5509L62.4014 34C57.9158 21.7457 46.1503 13 32.3422 13Z" fill="white"/>
<path fill-rule="evenodd" clip-rule="evenodd" d="M3.29791 33.4107L19.5262 39.3608C21.6949 34.4385 26.6166 31 32.3438 31C37.9869 31 42.8482 34.3384 45.0642 39.1453L60.7039 33.4107C56.1157 22.0277 45.0216 14 32.0016 14C18.9816 14 7.88612 22.0278 3.29791 33.4107ZM31.9969 43.9332L21.4084 40.0509C23.2939 35.8913 27.4823 33 32.3438 33C37.1212 33 41.2487 35.7922 43.1794 39.8364L32.0047 43.9338L32 43.932L31.9969 43.9332ZM29.1246 45.0103L1.65591 34.9389L0.717529 34.5948L1.06109 33.6563C5.68564 21.0225 17.7583 12 32.0016 12C46.245 12 58.3162 21.0226 62.9407 33.6563L63.2842 34.5948L62.3459 34.9389L34.8769 45.0108L38.3511 46.3137L39.3174 46.676L38.9248 47.6304C37.8561 50.2288 35.1198 52 32 52C28.8802 52 26.1439 50.2288 25.0752 47.6304L24.6826 46.676L25.6489 46.3137L29.1246 45.0103ZM32 46.068L36.5675 47.7808C35.6271 49.0905 33.9581 50 32 50C30.0419 50 28.3729 49.0905 27.4325 47.7808L32 46.068Z" fill="black"/>
</svg>
