<svg width="64" height="64" viewBox="0 0 64 64" fill="none" xmlns="http://www.w3.org/2000/svg">
<mask id="mask0_105_1568" style="mask-type:alpha" maskUnits="userSpaceOnUse" x="0" y="0" width="64" height="64">
<path d="M32 64C49.6731 64 64 49.6731 64 32C64 14.3269 49.6731 0 32 0C14.3269 0 0 14.3269 0 32C0 49.6731 14.3269 64 32 64Z" fill="white"/>
</mask>
<g mask="url(#mask0_105_1568)">
<path d="M0 0H64V64H0V0Z" fill="#EEEEEE"/>
<path d="M31.9999 45.9129C39.6836 45.9129 45.9124 39.6841 45.9124 32.0004C45.9124 24.3167 39.6836 18.0879 31.9999 18.0879C24.3162 18.0879 18.0874 24.3167 18.0874 32.0004C18.0874 39.6841 24.3162 45.9129 31.9999 45.9129Z" fill="#D80027"/>
</g>
</svg>
