<svg width="200" height="30" viewBox="0 0 200 30" fill="none" xmlns="http://www.w3.org/2000/svg">
<g clip-path="url(#clip0_105_749)">
<path d="M40.8229 3.81152H46.5798V12.654H46.6419L53.1432 3.81152H60.0773L52.0887 13.8949L60.6963 25.4679H53.3545L46.6381 15.6319H46.5761V25.4679H40.8191L40.8229 3.81152Z" fill="white"/>
<path d="M63.3253 3.81152H78.5519V7.90471H69.0785V12.3761H78.0266V16.4719H69.0785V21.3733H78.8912V25.4692H63.3215L63.3253 3.81152Z" fill="white"/>
<path d="M82.7976 3.81152H90.1394L97.4457 18.5198H97.5052L97.4128 3.81152H102.676V25.4679H95.5255L87.971 10.6683H87.909L88.0951 25.4679H82.8014L82.7976 3.81152Z" fill="white"/>
<path d="M110.811 8.09383H105.486V3.81152H121.894V8.09383H116.568V25.4692H110.811V8.09383Z" fill="white"/>
<path d="M132.295 8.28104H132.236L129.451 16.7506H134.86L132.295 8.28104ZM128.767 3.81226H135.823L144.151 25.4687H137.838L136.227 20.8463H128.114L126.413 25.4687H120.563L128.767 3.81226Z" fill="white"/>
<path d="M148.335 8.09383H143.01V3.81152H159.418V8.09383H154.092V25.4692H148.335V8.09383Z" fill="white"/>
<path d="M162.205 20.1316C164.04 21.0868 166.081 21.5765 168.148 21.5578C169.976 21.5578 171.71 21.1848 171.71 19.4477C171.71 15.4141 161.492 17.9569 161.492 10.0787C161.492 4.86511 166.57 3.43635 170.904 3.43635C172.791 3.41619 174.669 3.68845 176.473 4.24338L176.101 8.71217C174.591 8.04264 172.955 7.7039 171.304 7.71865C169.847 7.71865 167.435 7.84557 167.435 9.73612C167.435 13.2432 177.651 10.8781 177.651 18.703C177.651 24.3201 172.944 25.8401 168.146 25.8401C165.966 25.8414 163.797 25.5281 161.706 24.9101L162.205 20.1316Z" fill="white"/>
<path d="M200 17.2467C200 23.1734 196.162 25.843 190.529 25.843C184.896 25.843 181.056 23.1785 181.056 17.2467V3.81104H186.813V16.2849C186.813 19.1398 187.586 21.5607 190.529 21.5607C193.472 21.5607 194.243 19.1398 194.243 16.2849V3.81104H200V17.2467Z" fill="white"/>
<path d="M18.5279 0H10.6848V7.86675H18.5279V0Z" fill="#E50019"/>
<path d="M18.5279 21.3767H10.6848V29.246H18.5279V21.3767Z" fill="#E50019"/>
<path d="M6.77857 14.6046L0 18.5603L3.94441 25.3517L10.723 21.396L6.77857 14.6046Z" fill="#E50019"/>
<path d="M3.98889 3.84391L0.0163574 10.627L6.78223 14.6083L10.7548 7.82524L3.98889 3.84391Z" fill="#E50019"/>
<path d="M22.4565 14.6015L18.5127 21.397L25.2953 25.352L29.2391 18.5566L22.4565 14.6015Z" fill="#E50019"/>
<path d="M25.25 3.84526L18.4824 7.82617L22.4539 14.6098L29.2215 10.6289L25.25 3.84526Z" fill="#E50019"/>
</g>
<defs>
<clipPath id="clip0_105_749">
<rect width="200" height="29.2453" fill="white"/>
</clipPath>
</defs>
</svg>
