<svg width="267" height="22" viewBox="0 0 267 22" fill="none" xmlns="http://www.w3.org/2000/svg">
<g clip-path="url(#clip0_2032_576)">
<g clip-path="url(#clip1_2032_576)">
<path fill-rule="evenodd" clip-rule="evenodd" d="M30.7062 2.82812H35.0357V9.48607H35.0806L39.9657 2.82812H45.1799L39.175 10.4207L45.6436 19.1363H40.126L35.0806 11.7297H35.0357V19.1363H30.7062V2.82812Z" fill="#151515"/>
<path fill-rule="evenodd" clip-rule="evenodd" d="M47.6224 2.82812H59.3244V5.90903H51.9497V9.27344H58.6726V12.3588H51.9497V16.0532H59.3244V19.1363H47.6224V2.82812Z" fill="#151515"/>
<path fill-rule="evenodd" clip-rule="evenodd" d="M62.2565 2.82812H67.772L73.2619 13.9003H73.3089L73.2384 2.82812H77.1918V19.1363H71.8194L66.1393 7.98881H66.0987L66.2355 19.1363H62.2565V2.82812Z" fill="#151515"/>
<path fill-rule="evenodd" clip-rule="evenodd" d="M83.312 6.05078H79.3116V2.82812H91.6419V6.05078H87.6436V19.1363H83.312V6.05078Z" fill="#151515"/>
<path fill-rule="evenodd" clip-rule="evenodd" d="M96.8069 2.82812H102.115L108.372 19.1363H103.626L102.414 15.6523H96.3197L95.0396 19.1363H90.6439L96.8069 2.82812ZM99.461 6.19253H99.414L97.3198 12.567H101.397L99.461 6.19253Z" fill="#151515"/>
<path fill-rule="evenodd" clip-rule="evenodd" d="M111.516 6.05078H107.513V2.82812H119.846V6.05078H115.845V19.1363H111.516V6.05078Z" fill="#151515"/>
<path fill-rule="evenodd" clip-rule="evenodd" d="M121.94 15.1163C123.06 15.7254 124.617 16.1928 126.406 16.1928C127.78 16.1928 129.084 15.9115 129.084 14.6025C129.084 11.5637 121.403 13.4795 121.403 7.54365C121.403 3.62109 125.22 2.54688 128.477 2.54688C130.039 2.54688 131.571 2.77944 132.665 3.15375L132.388 6.51595C131.27 6.00652 130.013 5.77175 128.778 5.77175C127.686 5.77175 125.87 5.86699 125.87 7.28673C125.87 9.9313 133.552 8.15275 133.552 14.0421C133.552 18.2703 130.013 19.4199 126.406 19.4199C124.893 19.4199 123.008 19.1829 121.566 18.7155L121.94 15.1163Z" fill="#151515"/>
<path fill-rule="evenodd" clip-rule="evenodd" d="M150.349 12.9479C150.349 17.4043 147.462 19.4154 143.228 19.4154C138.995 19.4154 136.112 17.4043 136.112 12.9479V2.82812H140.435V12.2214C140.435 14.3699 141.021 16.1927 143.228 16.1927C145.438 16.1927 146.019 14.3699 146.019 12.2214V2.82812H150.349V12.9479Z" fill="#151515"/>
<path fill-rule="evenodd" clip-rule="evenodd" d="M8.05417 5.87839H13.9479V-0.0419922H8.05417V5.87839Z" fill="#F32424"/>
<path fill-rule="evenodd" clip-rule="evenodd" d="M8.05417 21.9763H13.9479V16.0537H8.05417V21.9763Z" fill="#F32424"/>
<path fill-rule="evenodd" clip-rule="evenodd" d="M0.0262604 13.9314L5.11866 10.9502L8.08691 16.0688L2.9881 19.05L0.0262604 13.9314Z" fill="#F32424"/>
<path fill-rule="evenodd" clip-rule="evenodd" d="M3.02248 2.85254L8.10633 5.84928L5.12098 10.9612L0.0349922 7.95785L3.02248 2.85254Z" fill="#F32424"/>
<path fill-rule="evenodd" clip-rule="evenodd" d="M21.9979 13.9314L16.9034 10.9502L13.9373 16.0688L19.0318 19.05L21.9979 13.9314Z" fill="#F32424"/>
<path fill-rule="evenodd" clip-rule="evenodd" d="M18.9998 2.85254L13.9138 5.84928L16.8991 10.9612L21.9851 7.95785L18.9998 2.85254Z" fill="#F32424"/>
</g>
</g>
<path d="M164.426 2.72363H163.489V19.279H164.426V2.72363Z" fill="#151515"/>
<g clip-path="url(#clip2_2032_576)">
<path d="M197.682 3.00488C193.224 3.00488 189.611 6.61843 189.611 11.0752C189.611 15.5319 193.225 19.1455 197.682 19.1455C202.138 19.1455 205.752 15.5319 205.752 11.0752C205.752 6.61843 202.138 3.00488 197.682 3.00488Z" fill="#EC1E27"/>
<path d="M191.303 19.1453C190.615 18.5026 189.821 17.7416 189.391 16.8943H180.572C181.07 16.3083 182.08 15.4002 183.321 14.4297C183.321 14.4297 184.093 13.7969 184.284 13.6407C185.197 12.8912 186.373 11.8549 186.944 11.0544C187.769 10.0913 187.909 8.62513 187.932 8.09506L187.941 7.91015C187.941 5.05021 185.615 2.72363 182.756 2.72363C179.897 2.72363 177.57 5.05021 177.57 7.90932V8.09423H179.821V7.90932C179.821 6.29116 181.138 4.9746 182.756 4.9746C184.374 4.9746 185.597 6.19994 185.685 7.74003V7.91426C185.685 8.28325 185.569 9.22013 185.224 9.60146L185.181 9.6483L185.13 9.7198C184.729 10.3033 183.477 11.444 181.941 12.6266L181.502 12.9989C180.487 13.8149 179.18 14.9458 178.56 15.8144C177.596 16.9395 177.568 18.7533 177.568 18.9604V19.1453L178.995 19.1428V19.1453H191.302H191.303Z" fill="#EC1E27"/>
<path d="M213.296 11.4396C213.097 11.4396 212.911 11.424 212.738 11.3936C212.566 11.3631 212.423 11.3245 212.31 11.2777L212.664 10.1082C212.848 10.1649 213.014 10.1953 213.162 10.2003C213.31 10.2052 213.439 10.1707 213.549 10.0975C213.658 10.0236 213.747 9.89866 213.815 9.72197L213.907 9.48282L211.88 3.6709H213.527L214.697 7.82027H214.756L215.937 3.6709H217.596L215.4 9.93153C215.295 10.2356 215.152 10.5011 214.972 10.7279C214.792 10.9547 214.564 11.1297 214.29 11.2538C214.015 11.3779 213.684 11.4396 213.296 11.4396H213.296Z" fill="black"/>
<path d="M220.785 9.43274C220.204 9.43274 219.704 9.3144 219.286 9.07771C218.867 8.84103 218.546 8.50491 218.32 8.07016C218.094 7.6346 217.982 7.11931 217.982 6.52349C217.982 5.92767 218.094 5.43212 218.32 4.99326C218.546 4.55441 218.864 4.21253 219.275 3.96681C219.686 3.72191 220.168 3.59863 220.722 3.59863C221.095 3.59863 221.443 3.6578 221.765 3.77697C222.087 3.89613 222.37 4.07447 222.612 4.31197C222.853 4.54948 223.041 4.84862 223.176 5.20776C223.311 5.56689 223.378 5.98685 223.378 6.46761V6.89824H218.607V5.92685H221.903C221.903 5.70085 221.854 5.50115 221.756 5.32692C221.658 5.1527 221.523 5.01627 221.349 4.91683C221.177 4.81739 220.976 4.76808 220.748 4.76808C220.519 4.76808 220.299 4.82232 220.117 4.93163C219.934 5.04093 219.791 5.18639 219.688 5.36966C219.586 5.5521 219.532 5.75509 219.53 5.97863V6.90235C219.53 7.18177 219.582 7.42339 219.686 7.6272C219.79 7.83101 219.938 7.98798 220.129 8.0981C220.32 8.20823 220.547 8.26329 220.809 8.26329C220.984 8.26329 221.143 8.23864 221.288 8.19015C221.432 8.14166 221.556 8.0677 221.659 7.96908C221.762 7.87128 221.841 7.75047 221.894 7.6083L223.344 7.70363C223.27 8.05208 223.12 8.35533 222.894 8.61421C222.667 8.87308 222.375 9.07361 222.018 9.21742C221.662 9.36124 221.25 9.43274 220.784 9.43274H220.785Z" fill="black"/>
<path d="M226.012 9.42848C225.652 9.42848 225.33 9.3652 225.048 9.23864C224.767 9.11208 224.544 8.9247 224.381 8.67569C224.218 8.42668 224.136 8.11603 224.136 7.74292C224.136 7.42899 224.194 7.16518 224.309 6.95233C224.424 6.73866 224.581 6.56772 224.78 6.43705C224.979 6.30638 225.205 6.20858 225.458 6.14284C225.712 6.07627 225.979 6.03025 226.259 6.00313C226.588 5.96861 226.852 5.93656 227.054 5.90533C227.255 5.87492 227.4 5.8289 227.492 5.76726C227.582 5.70563 227.628 5.61523 227.628 5.49524V5.47305C227.628 5.24048 227.555 5.05968 227.409 4.93229C227.263 4.80491 227.057 4.74081 226.79 4.74081C226.508 4.74081 226.284 4.80245 226.117 4.92654C225.95 5.05064 225.84 5.20514 225.786 5.39169L224.336 5.27417C224.41 4.93065 224.554 4.63315 224.77 4.3825C224.986 4.13102 225.265 3.93707 225.606 3.80147C225.948 3.66505 226.345 3.59766 226.796 3.59766C227.11 3.59766 227.411 3.63464 227.7 3.70778C227.988 3.78092 228.244 3.89516 228.469 4.04966C228.694 4.20416 228.871 4.40222 229.001 4.64383C229.13 4.88545 229.195 5.17391 229.195 5.51003V9.32082H227.709V8.53762H227.665C227.575 8.71432 227.453 8.86964 227.301 9.00278C227.149 9.13673 226.967 9.24028 226.753 9.31507C226.539 9.38985 226.293 9.42766 226.013 9.42766L226.012 9.42848ZM226.461 8.34696C226.691 8.34696 226.895 8.30094 227.072 8.2089C227.248 8.11685 227.386 7.99276 227.488 7.83579C227.588 7.67882 227.638 7.50131 227.638 7.30243V6.7025C227.589 6.73455 227.522 6.76331 227.437 6.78879C227.353 6.81426 227.257 6.8381 227.152 6.85864C227.047 6.87919 226.941 6.89809 226.836 6.91371C226.731 6.92932 226.635 6.94411 226.549 6.95562C226.365 6.98274 226.205 7.02547 226.067 7.08464C225.93 7.14382 225.823 7.22271 225.748 7.32215C225.671 7.42159 225.634 7.54486 225.634 7.69197C225.634 7.90564 225.712 8.06754 225.867 8.17931C226.022 8.29108 226.22 8.34696 226.461 8.34696Z" fill="black"/>
<path d="M230.412 9.32138V3.67136H231.931V4.65754H231.99C232.093 4.30663 232.266 4.04118 232.509 3.8612C232.751 3.68122 233.032 3.59082 233.348 3.59082C233.427 3.59082 233.511 3.59575 233.602 3.60561C233.693 3.61547 233.773 3.62862 233.841 3.64588V5.0364C233.767 5.01421 233.666 4.99449 233.535 4.97723C233.405 4.95997 233.286 4.95176 233.179 4.95176C232.949 4.95176 232.743 5.00107 232.562 5.10051C232.381 5.19995 232.24 5.33801 232.136 5.5147C232.031 5.6914 231.98 5.89521 231.98 6.12532V9.3222H230.412L230.412 9.32138Z" fill="black"/>
<path d="M239.347 5.28239L237.912 5.37032C237.888 5.24787 237.835 5.13693 237.754 5.03749C237.673 4.93805 237.566 4.85833 237.436 4.79834C237.304 4.73834 237.148 4.70794 236.966 4.70794C236.724 4.70794 236.519 4.75889 236.353 4.8608C236.186 4.9627 236.103 5.0983 236.103 5.2676C236.103 5.40238 236.157 5.51661 236.265 5.60947C236.372 5.70234 236.558 5.77713 236.82 5.83383L237.842 6.04011C238.391 6.1527 238.802 6.33432 239.071 6.58415C239.341 6.83399 239.475 7.16272 239.475 7.57034C239.475 7.94098 239.367 8.2656 239.15 8.54502C238.933 8.82444 238.636 9.04222 238.26 9.19837C237.884 9.35369 237.45 9.43176 236.96 9.43176C236.212 9.43176 235.616 9.27562 235.174 8.9625C234.731 8.65021 234.472 8.22369 234.396 7.68375L235.937 7.60321C235.984 7.83168 236.096 8.00508 236.275 8.12342C236.454 8.24259 236.684 8.30176 236.963 8.30176C237.243 8.30176 237.459 8.24834 237.627 8.1415C237.795 8.03467 237.88 7.8966 237.883 7.72813C237.88 7.58595 237.82 7.46843 237.703 7.37721C237.585 7.28599 237.404 7.21449 237.159 7.166L236.18 6.97123C235.628 6.86111 235.218 6.66962 234.95 6.3976C234.682 6.12558 234.547 5.77877 234.547 5.35635C234.547 4.99311 234.646 4.68082 234.843 4.41866C235.04 4.15649 235.319 3.95433 235.678 3.81133C236.037 3.66915 236.459 3.59766 236.942 3.59766C237.655 3.59766 238.217 3.74887 238.628 4.05048C239.039 4.35209 239.279 4.763 239.347 5.28321V5.28239Z" fill="black"/>
<path d="M214.881 18.4663C214.31 18.4663 213.816 18.3446 213.4 18.1005C212.984 17.8565 212.664 17.5154 212.438 17.0782C212.212 16.6402 212.099 16.1323 212.099 15.5537C212.099 14.9752 212.212 14.4591 212.438 14.0218C212.664 13.5838 212.984 13.2436 213.4 12.9995C213.816 12.7554 214.309 12.6338 214.881 12.6338C215.453 12.6338 215.946 12.7554 216.362 12.9995C216.778 13.2436 217.098 13.5846 217.324 14.0218C217.55 14.4599 217.663 14.9702 217.663 15.5537C217.663 16.1372 217.55 16.641 217.324 17.0782C217.098 17.5162 216.778 17.8565 216.362 18.1005C215.946 18.3446 215.453 18.4663 214.881 18.4663ZM214.888 17.2524C215.148 17.2524 215.365 17.1785 215.539 17.0297C215.713 16.881 215.845 16.6788 215.934 16.4207C216.024 16.1635 216.068 15.8701 216.068 15.5414C216.068 15.2127 216.023 14.9193 215.934 14.662C215.845 14.4048 215.713 14.201 215.539 14.0514C215.365 13.9019 215.148 13.8271 214.888 13.8271C214.628 13.8271 214.406 13.9019 214.228 14.0514C214.051 14.201 213.917 14.4048 213.827 14.662C213.738 14.9193 213.693 15.2127 213.693 15.5414C213.693 15.8701 213.738 16.1627 213.827 16.4207C213.917 16.678 214.051 16.881 214.228 17.0297C214.406 17.1785 214.626 17.2524 214.888 17.2524Z" fill="black"/>
<path d="M221.723 12.7067V13.8836H218.236V12.7067H221.723ZM219.033 18.3567V12.2983C219.033 11.889 219.114 11.5488 219.274 11.2792C219.435 11.0097 219.655 10.8075 219.934 10.6719C220.214 10.5371 220.532 10.4697 220.887 10.4697C221.127 10.4697 221.347 10.4878 221.547 10.5248C221.746 10.5618 221.895 10.5946 221.994 10.6242L221.714 11.8011C221.653 11.7814 221.578 11.7633 221.488 11.746C221.399 11.7288 221.307 11.7205 221.215 11.7205C220.984 11.7205 220.823 11.774 220.733 11.8808C220.642 11.9876 220.597 12.1364 220.597 12.3279V18.3567H219.033Z" fill="black"/>
<path d="M229.783 14.3166L228.348 14.4045C228.323 14.2821 228.271 14.1711 228.189 14.0717C228.109 13.9722 228.003 13.8925 227.871 13.8325C227.74 13.7725 227.584 13.7421 227.402 13.7421C227.16 13.7421 226.954 13.7931 226.788 13.895C226.621 13.9969 226.538 14.1325 226.538 14.3018C226.538 14.4366 226.593 14.5508 226.7 14.6437C226.808 14.7365 226.994 14.8113 227.256 14.868L228.278 15.0743C228.827 15.1869 229.237 15.3685 229.507 15.6183C229.776 15.8682 229.911 16.1969 229.911 16.6045C229.911 16.9752 229.803 17.2998 229.586 17.5792C229.369 17.8586 229.072 18.0764 228.696 18.2325C228.319 18.3887 227.886 18.4659 227.395 18.4659C226.648 18.4659 226.053 18.3098 225.61 17.9967C225.167 17.6844 224.908 17.2579 224.831 16.7179L226.372 16.6374C226.419 16.8659 226.532 17.0393 226.711 17.1576C226.89 17.2768 227.119 17.3359 227.399 17.3359C227.678 17.3359 227.895 17.2825 228.063 17.1757C228.23 17.0688 228.316 16.9308 228.318 16.7623C228.316 16.6201 228.256 16.5026 228.138 16.4114C228.021 16.3202 227.839 16.2487 227.594 16.2002L226.616 16.0054C226.064 15.8953 225.654 15.7038 225.385 15.4318C225.117 15.1598 224.983 14.8129 224.983 14.3905C224.983 14.0273 225.081 13.715 225.278 13.4528C225.476 13.1907 225.754 12.9885 226.113 12.8455C226.473 12.7033 226.894 12.6318 227.377 12.6318C228.09 12.6318 228.652 12.7831 229.063 13.0847C229.474 13.3863 229.714 13.7972 229.782 14.3174L229.783 14.3166Z" fill="black"/>
<path d="M234.524 15.9504V12.7059H236.091V18.3559H234.586V17.3295H234.527C234.4 17.6607 234.188 17.9269 233.893 18.1275C233.597 18.3288 233.237 18.4291 232.813 18.4291C232.435 18.4291 232.103 18.3436 231.816 18.1718C231.529 18.0001 231.305 17.756 231.145 17.4396C230.984 17.1232 230.902 16.7443 230.9 16.303V12.7051H232.467V16.0228C232.469 16.3564 232.559 16.6202 232.736 16.8134C232.912 17.0073 233.149 17.1043 233.446 17.1043C233.635 17.1043 233.811 17.0607 233.976 16.9736C234.14 16.8865 234.273 16.7575 234.375 16.5857C234.477 16.414 234.526 16.2019 234.524 15.9496V15.9504Z" fill="black"/>
<path d="M239.895 18.4659C239.316 18.4659 238.819 18.3427 238.403 18.0961C237.987 17.8496 237.668 17.5069 237.446 17.068C237.224 16.6292 237.114 16.1238 237.114 15.5526C237.114 14.9814 237.226 14.4653 237.45 14.0281C237.675 13.5909 237.995 13.2482 238.409 13.0017C238.823 12.7551 239.316 12.6318 239.887 12.6318C240.38 12.6318 240.812 12.7214 241.182 12.9006C241.553 13.0797 241.846 13.3312 242.062 13.655C242.277 13.9788 242.396 14.3585 242.418 14.7957H240.939C240.897 14.5138 240.788 14.2862 240.61 14.1136C240.432 13.941 240.199 13.8539 239.913 13.8539C239.67 13.8539 239.458 13.9196 239.278 14.0503C239.098 14.1818 238.958 14.3725 238.857 14.6223C238.756 14.8721 238.706 15.1754 238.706 15.5312C238.706 15.8871 238.756 16.1985 238.855 16.4508C238.954 16.7031 239.095 16.8963 239.277 17.0286C239.458 17.1609 239.67 17.2275 239.913 17.2275C240.092 17.2275 240.253 17.1905 240.397 17.1173C240.541 17.0442 240.659 16.9365 240.753 16.7952C240.848 16.6538 240.91 16.4845 240.939 16.2857H242.418C242.394 16.7171 242.277 17.0968 242.067 17.4239C241.857 17.751 241.569 18.0065 241.2 18.1906C240.832 18.3747 240.398 18.4668 239.895 18.4668V18.4659Z" fill="black"/>
<path d="M245.979 18.4659C245.401 18.4659 244.904 18.3427 244.488 18.0961C244.072 17.8496 243.753 17.5069 243.531 17.068C243.309 16.6292 243.198 16.1238 243.198 15.5526C243.198 14.9814 243.31 14.4653 243.535 14.0281C243.76 13.5901 244.079 13.2482 244.493 13.0017C244.908 12.7551 245.401 12.6318 245.972 12.6318C246.465 12.6318 246.896 12.7214 247.267 12.9006C247.638 13.0797 247.93 13.3312 248.146 13.655C248.363 13.9788 248.481 14.3585 248.503 14.7957H247.025C246.983 14.5138 246.873 14.2862 246.695 14.1136C246.518 13.941 246.285 13.8539 245.998 13.8539C245.756 13.8539 245.544 13.9196 245.364 14.0503C245.184 14.1818 245.043 14.3725 244.942 14.6223C244.841 14.8721 244.792 15.1754 244.792 15.5312C244.792 15.8871 244.841 16.1985 244.941 16.4508C245.04 16.7031 245.181 16.8963 245.362 17.0286C245.544 17.1609 245.756 17.2275 245.998 17.2275C246.177 17.2275 246.338 17.1905 246.482 17.1173C246.626 17.0442 246.744 16.9365 246.839 16.7952C246.933 16.6538 246.995 16.4845 247.025 16.2857H248.503C248.478 16.7171 248.362 17.0968 248.152 17.4239C247.943 17.751 247.653 18.0065 247.286 18.1906C246.918 18.3747 246.483 18.4668 245.98 18.4668L245.979 18.4659Z" fill="black"/>
<path d="M252.085 18.4659C251.504 18.4659 251.005 18.3476 250.586 18.1109C250.168 17.8742 249.846 17.5381 249.621 17.1034C249.395 16.6678 249.282 16.1525 249.282 15.5567C249.282 14.9609 249.395 14.4653 249.621 14.0265C249.847 13.5876 250.165 13.2457 250.576 13C250.987 12.7551 251.469 12.6318 252.023 12.6318C252.396 12.6318 252.743 12.691 253.066 12.8102C253.389 12.9293 253.671 13.1077 253.912 13.3452C254.154 13.5827 254.342 13.8818 254.477 14.241C254.612 14.6001 254.679 15.02 254.679 15.5008V15.9314H249.908V14.9601H253.204C253.204 14.7341 253.155 14.5344 253.057 14.3601C252.959 14.1859 252.823 14.0495 252.65 13.95C252.477 13.8506 252.277 13.8013 252.048 13.8013C251.82 13.8013 251.601 13.8555 251.417 13.9648C251.235 14.0741 251.092 14.2196 250.989 14.4029C250.886 14.5853 250.833 14.7883 250.831 15.0118V15.9356C250.831 16.215 250.882 16.4566 250.987 16.6604C251.091 16.8642 251.239 17.0212 251.43 17.1313C251.621 17.2414 251.848 17.2965 252.11 17.2965C252.284 17.2965 252.444 17.2718 252.588 17.2234C252.733 17.174 252.857 17.1009 252.96 17.0023C253.063 16.9045 253.141 16.7837 253.196 16.6415L254.645 16.7368C254.571 17.0853 254.421 17.3885 254.194 17.6474C253.967 17.9063 253.676 18.1068 253.319 18.2506C252.962 18.3944 252.551 18.4659 252.085 18.4659H252.085Z" fill="black"/>
<path d="M260.403 14.3166L258.968 14.4045C258.944 14.2821 258.891 14.1711 258.81 14.0717C258.729 13.9722 258.623 13.8925 258.492 13.8325C258.36 13.7725 258.204 13.7421 258.022 13.7421C257.78 13.7421 257.574 13.7931 257.408 13.895C257.242 13.9969 257.159 14.1325 257.159 14.3018C257.159 14.4366 257.213 14.5508 257.32 14.6437C257.428 14.7365 257.614 14.8113 257.876 14.868L258.898 15.0743C259.447 15.1869 259.857 15.3685 260.127 15.6183C260.396 15.8682 260.531 16.1969 260.531 16.6045C260.531 16.9752 260.423 17.2998 260.206 17.5792C259.989 17.8586 259.692 18.0764 259.316 18.2325C258.939 18.3887 258.506 18.4659 258.016 18.4659C257.268 18.4659 256.673 18.3098 256.23 17.9967C255.787 17.6844 255.528 17.2579 255.452 16.7179L256.993 16.6374C257.039 16.8659 257.152 17.0393 257.331 17.1576C257.51 17.2768 257.74 17.3359 258.019 17.3359C258.298 17.3359 258.515 17.2825 258.683 17.1757C258.851 17.0688 258.936 16.9308 258.939 16.7623C258.936 16.6201 258.876 16.5026 258.759 16.4114C258.641 16.3193 258.459 16.2487 258.215 16.2002L257.236 16.0054C256.684 15.8953 256.274 15.7038 256.006 15.4318C255.737 15.1598 255.603 14.8129 255.603 14.3905C255.603 14.0273 255.701 13.715 255.899 13.4528C256.096 13.1907 256.375 12.9885 256.734 12.8455C257.093 12.7033 257.514 12.6318 257.997 12.6318C258.71 12.6318 259.272 12.7831 259.683 13.0847C260.094 13.3863 260.334 13.7972 260.402 14.3174L260.403 14.3166Z" fill="black"/>
<path d="M266.222 14.3166L264.788 14.4045C264.763 14.2821 264.71 14.1711 264.629 14.0717C264.548 13.9722 264.442 13.8925 264.311 13.8325C264.179 13.7725 264.023 13.7421 263.842 13.7421C263.599 13.7421 263.394 13.7931 263.228 13.895C263.061 13.9969 262.978 14.1325 262.978 14.3018C262.978 14.4366 263.032 14.5508 263.14 14.6437C263.247 14.7365 263.433 14.8113 263.695 14.868L264.718 15.0743C265.267 15.1869 265.677 15.3685 265.946 15.6183C266.216 15.8682 266.351 16.1969 266.351 16.6045C266.351 16.9752 266.242 17.2998 266.025 17.5792C265.808 17.8586 265.512 18.0764 265.135 18.2325C264.759 18.3879 264.326 18.4659 263.835 18.4659C263.087 18.4659 262.492 18.3098 262.049 17.9967C261.606 17.6844 261.347 17.2579 261.271 16.7179L262.812 16.6374C262.859 16.8659 262.971 17.0393 263.15 17.1576C263.33 17.2768 263.559 17.3359 263.838 17.3359C264.118 17.3359 264.335 17.2825 264.502 17.1757C264.67 17.0688 264.755 16.9308 264.758 16.7623C264.755 16.6201 264.695 16.5026 264.578 16.4114C264.46 16.3193 264.279 16.2487 264.034 16.2002L263.055 16.0054C262.504 15.8953 262.094 15.7038 261.825 15.4318C261.556 15.1598 261.422 14.8129 261.422 14.3905C261.422 14.0273 261.521 13.715 261.718 13.4528C261.915 13.1907 262.194 12.9885 262.553 12.8455C262.912 12.7033 263.334 12.6318 263.816 12.6318C264.529 12.6318 265.092 12.7831 265.503 13.0847C265.913 13.3863 266.153 13.7972 266.222 14.3174L266.222 14.3166Z" fill="black"/>
</g>
<defs>
<clipPath id="clip0_2032_576">
<rect width="150.333" height="22" fill="white"/>
</clipPath>
<clipPath id="clip1_2032_576">
<rect width="150.333" height="22" fill="white"/>
</clipPath>
<clipPath id="clip2_2032_576">
<rect width="88.7838" height="16.4216" fill="white" transform="translate(177.568 2.72363)"/>
</clipPath>
</defs>
</svg>
