<svg width="147" height="22" viewBox="0 0 147 22" fill="none" xmlns="http://www.w3.org/2000/svg">
<g clip-path="url(#clip0_219_585)">
<path d="M30.005 2.80176H34.2364V9.30098H34.282L39.0604 2.80176H44.157L38.2854 10.213L44.612 18.7192H39.2157L34.2792 11.4898H34.2336V18.7192H30.0022L30.005 2.80176Z" fill="#151515"/>
<path d="M46.5438 2.80176H57.7354V5.81025H50.7724V9.09675H57.3492V12.1071H50.7724V15.7097H57.9847V18.7201H46.541L46.5438 2.80176Z" fill="#151515"/>
<path d="M60.8562 2.80176H66.2524L71.6226 13.6123H71.6663L71.5984 2.80176H75.4669V18.7192H70.2112L64.6587 7.84147H64.6131L64.7499 18.7192H60.859L60.8562 2.80176Z" fill="#151515"/>
<path d="M81.4463 5.94925H77.5322V2.80176H89.5918V5.94925H85.6777V18.7201H81.4463V5.94925Z" fill="#151515"/>
<path d="M97.237 6.08632H97.1933L95.1465 12.3114H99.1219L97.237 6.08632ZM94.644 2.80176H99.83L105.951 18.7192H101.311L100.127 15.3218H94.164L92.9135 18.7192H88.6143L94.644 2.80176Z" fill="#151515"/>
<path d="M109.026 5.94925H105.112V2.80176H117.172V5.94925H113.258V18.7201H109.026V5.94925Z" fill="#151515"/>
<path d="M119.221 14.7972C120.57 15.4992 122.07 15.8591 123.589 15.8455C124.933 15.8455 126.207 15.5713 126.207 14.2945C126.207 11.3298 118.697 13.1988 118.697 7.40831C118.697 3.5763 122.429 2.52616 125.615 2.52616C127.002 2.51134 128.382 2.71145 129.708 3.11933L129.435 6.40389C128.325 5.91178 127.122 5.66281 125.909 5.67365C124.838 5.67365 123.065 5.76693 123.065 7.15649C123.065 9.73418 130.574 7.99584 130.574 13.7471C130.574 17.8757 127.114 18.993 123.587 18.993C121.985 18.9938 120.391 18.7636 118.855 18.3093L119.221 14.7972Z" fill="#151515"/>
<path d="M147 12.676C147 17.0321 144.179 18.9942 140.039 18.9942C135.899 18.9942 133.076 17.0358 133.076 12.676V2.80078H137.307V11.9691C137.307 14.0674 137.876 15.8467 140.039 15.8467C142.202 15.8467 142.769 14.0674 142.769 11.9691V2.80078H147V12.676Z" fill="#151515"/>
<path d="M13.6179 0H7.85327V5.78206H13.6179V0Z" fill="#E50019"/>
<path d="M13.6179 15.7119H7.85327V21.4958H13.6179V15.7119Z" fill="#E50019"/>
<path d="M4.98225 10.7342L0 13.6416L2.89914 18.6333L7.88139 15.7258L4.98225 10.7342Z" fill="#E50019"/>
<path d="M2.93153 2.82501L0.0117188 7.81055L4.98463 10.7368L7.90445 5.75129L2.93153 2.82501Z" fill="#E50019"/>
<path d="M16.5051 10.7319L13.6064 15.7266L18.5917 18.6335L21.4904 13.6389L16.5051 10.7319Z" fill="#E50019"/>
<path d="M18.5591 2.82598L13.585 5.75195L16.504 10.738L21.4782 7.81198L18.5591 2.82598Z" fill="#E50019"/>
</g>
<defs>
<clipPath id="clip0_219_585">
<rect width="147" height="21.4953" fill="white"/>
</clipPath>
</defs>
</svg>
