<svg width="200" height="30" viewBox="0 0 200 30" fill="none" xmlns="http://www.w3.org/2000/svg">
<g clip-path="url(#clip0_224_391)">
<path d="M40.8229 3.81152H46.5798V12.654H46.6419L53.1432 3.81152H60.0773L52.0887 13.8949L60.6963 25.4679H53.3545L46.6381 15.6319H46.5761V25.4679H40.8191L40.8229 3.81152Z" fill="white"/>
<path d="M63.3251 3.81152H78.5517V7.90471H69.0783V12.3761H78.0264V16.4719H69.0783V21.3733H78.8909V25.4692H63.3213L63.3251 3.81152Z" fill="white"/>
<path d="M82.7979 3.81152H90.1396L97.446 18.5198H97.5055L97.4131 3.81152H102.676V25.4679H95.5257L87.9713 10.6683H87.9093L88.0953 25.4679H82.8017L82.7979 3.81152Z" fill="white"/>
<path d="M110.812 8.09383H105.486V3.81152H121.894V8.09383H116.569V25.4692H110.812V8.09383Z" fill="white"/>
<path d="M132.295 8.28129H132.236L129.451 16.7508H134.86L132.295 8.28129ZM128.767 3.8125H135.823L144.151 25.4689H137.838L136.227 20.8465H128.114L126.413 25.4689H120.563L128.767 3.8125Z" fill="white"/>
<path d="M148.335 8.09383H143.01V3.81152H159.417V8.09383H154.092V25.4692H148.335V8.09383Z" fill="white"/>
<path d="M162.205 20.1319C164.04 21.087 166.08 21.5767 168.148 21.5581C169.976 21.5581 171.71 21.185 171.71 19.448C171.71 15.4144 161.492 17.9571 161.492 10.079C161.492 4.86535 166.569 3.43659 170.904 3.43659C172.79 3.41643 174.669 3.6887 176.473 4.24363L176.101 8.71241C174.591 8.04288 172.955 7.70415 171.304 7.71889C169.847 7.71889 167.435 7.84581 167.435 9.73637C167.435 13.2434 177.65 10.8783 177.65 18.7032C177.65 24.3203 172.944 25.8404 168.145 25.8404C165.966 25.8416 163.797 25.5283 161.706 24.9103L162.205 20.1319Z" fill="white"/>
<path d="M200 17.2462C200 23.1729 196.162 25.8425 190.529 25.8425C184.896 25.8425 181.056 23.178 181.056 17.2462V3.81055H186.813V16.2844C186.813 19.1393 187.586 21.5602 190.529 21.5602C193.472 21.5602 194.243 19.1393 194.243 16.2844V3.81055H200V17.2462Z" fill="white"/>
<path d="M18.5279 0H10.6848V7.86675H18.5279V0Z" fill="white"/>
<path d="M18.5276 21.377H10.6846V29.2462H18.5276V21.377Z" fill="white"/>
<path d="M6.77857 14.6048L0 18.5605L3.94441 25.3519L10.723 21.3962L6.77857 14.6048Z" fill="white"/>
<path d="M3.98889 3.84391L0.0163574 10.627L6.78223 14.6083L10.7548 7.82524L3.98889 3.84391Z" fill="white"/>
<path d="M22.4565 14.601L18.5127 21.3965L25.2953 25.3516L29.2391 18.5561L22.4565 14.601Z" fill="white"/>
<path d="M25.25 3.84526L18.4824 7.82617L22.4539 14.6098L29.2215 10.6289L25.25 3.84526Z" fill="white"/>
</g>
<defs>
<clipPath id="clip0_224_391">
<rect width="200" height="29.2453" fill="white"/>
</clipPath>
</defs>
</svg>
