<svg width="64" height="64" viewBox="0 0 64 64" fill="none" xmlns="http://www.w3.org/2000/svg">
<mask id="mask0_105_1587" style="mask-type:alpha" maskUnits="userSpaceOnUse" x="0" y="0" width="64" height="64">
<path d="M32 64C49.6731 64 64 49.6731 64 32C64 14.3269 49.6731 0 32 0C14.3269 0 0 14.3269 0 32C0 49.6731 14.3269 64 32 64Z" fill="white"/>
</mask>
<g mask="url(#mask0_105_1587)">
<path d="M0 0H64V64H0V0Z" fill="#338AF3"/>
<path d="M50.0875 32.3496H13.9125C13.9125 34.8496 16.0875 36.8746 18.5875 36.8746H18.4375C18.4375 39.3746 20.4625 41.3871 22.9625 41.3871C22.9625 43.8871 24.975 45.9121 27.475 45.9121H36.525C39.025 45.9121 41.0375 43.8871 41.0375 41.3871C43.5375 41.3871 45.5625 39.3621 45.5625 36.8746H45.4125C47.9125 36.8746 50.0875 34.8496 50.0875 32.3496Z" fill="#FFDA44"/>
<path d="M44.525 26.4375C44.525 29.7593 43.2054 32.9451 40.8565 35.294C38.5076 37.6429 35.3218 38.9625 32 38.9625C28.6781 38.9625 25.4924 37.6429 23.1435 35.294C20.7946 32.9451 19.475 29.7593 19.475 26.4375" fill="#338AF3"/>
<path d="M41.5625 26.4379L37.6501 28.2754L39.7375 32.0629L35.4875 31.2504L34.9501 35.5379L32 32.3754L29.05 35.5379L28.5 31.2504L24.25 32.0629L26.3251 28.2754L22.425 26.4379L26.3251 24.6004L24.25 20.8129L28.5 21.6254L29.0375 17.3379L31.9875 20.4879L34.9375 17.3379L35.5 21.6254L39.75 20.8129L37.675 24.6004L41.5625 26.4379Z" fill="#FFDA44"/>
</g>
</svg>
