<svg width="120" height="120" viewBox="0 0 120 120" fill="none" xmlns="http://www.w3.org/2000/svg">
<path fill-rule="evenodd" clip-rule="evenodd" d="M20 24C20 22.8954 20.8954 22 22 22H94C95.1046 22 96 22.8954 96 24V51.5H94V29.8406L59.0884 52.486C58.4263 52.9154 57.5737 52.9154 56.9116 52.486L22 29.8406V76H68.5V78H22C20.8954 78 20 77.1046 20 76V24ZM22 27.4567L58 50.8081L94 27.4567V24L22 24V27.4567ZM6 46V92H55.5V94H6C4.89543 94 4 93.1046 4 92V46H6ZM105.707 76.7071L96.4142 86C95.6332 86.7811 94.3668 86.7811 93.5858 86L88.2929 80.7071L89.7071 79.2929L95 84.5858L104.293 75.2929L105.707 76.7071ZM80 80C80 70.6112 87.6112 63 97 63C106.389 63 114 70.6112 114 80C114 89.3888 106.389 97 97 97C87.6112 97 80 89.3888 80 80ZM97 61C86.5066 61 78 69.5066 78 80C78 90.4934 86.5066 99 97 99C107.493 99 116 90.4934 116 80C116 69.5066 107.493 61 97 61Z" fill="#F32424"/>
</svg>
