<svg width="64" height="64" viewBox="0 0 64 64" fill="none" xmlns="http://www.w3.org/2000/svg">
<mask id="mask0_105_1619" style="mask-type:alpha" maskUnits="userSpaceOnUse" x="0" y="0" width="64" height="64">
<path d="M32 64C49.6731 64 64 49.6731 64 32C64 14.3269 49.6731 0 32 0C14.3269 0 0 14.3269 0 32C0 49.6731 14.3269 64 32 64Z" fill="white"/>
</mask>
<g mask="url(#mask0_105_1619)">
<path d="M0 18.0879L31.9125 13.5254L64 18.0879V45.9129L31.3125 50.8754L0 45.9129V18.0879Z" fill="#EEEEEE"/>
<path d="M0 0H64V18.0875H0V0Z" fill="#D80027"/>
<path d="M0 45.9121H64V63.9996H0V45.9121Z" fill="#6DA544"/>
<path d="M26.4375 40.3746H37.5625V35.6246L35.3375 36.7496L32 33.3871L28.6625 36.7246L26.4375 35.6121V40.3746ZM20.0625 34.7996L20.5875 36.3871H22.25L20.8875 37.3871L21.4125 38.9746L20.05 37.9746L18.7 38.9746L19.2125 37.3746L17.875 36.3871H19.55L20.0625 34.7996ZM21.675 29.2246L22.1875 30.8246H23.875L22.525 31.8246L23.0375 33.3996L21.6875 32.4121L20.325 33.4121L20.85 31.8121L19.4875 30.8121H21.1625L21.675 29.2246ZM26.2625 25.0496L26.7875 26.6496H28.4625L27.1 27.6496L27.625 29.2246L26.25 28.2621L24.9 29.2371L25.4125 27.6496L24.0625 26.6621H25.75L26.2625 25.0496ZM43.9375 34.7996L43.4125 36.3871H41.75L43.1125 37.3871L42.5875 38.9746L43.95 37.9746L45.3 38.9746L44.7875 37.3746L46.125 36.3871H44.45L43.9375 34.7996ZM42.325 29.2246L41.8125 30.8246H40.125L41.475 31.8246L40.9625 33.3996L42.3125 32.4121L43.675 33.4121L43.15 31.8121L44.5125 30.8121H42.8375L42.325 29.2246ZM37.75 25.0496L37.225 26.6496H35.55L36.9125 27.6496L36.3875 29.2246L37.75 28.2621L39.1 29.2371L38.5875 27.6496L39.9375 26.6621H38.25L37.75 25.0496ZM32 22.9746L32.5125 24.5621H34.2L32.8375 25.5621L33.35 27.1371L32 26.1621L30.65 27.1371L31.1625 25.5496L29.8 24.5621H31.5L32 22.9746Z" fill="#FFDA44"/>
</g>
</svg>
