<svg width="64" height="64" fill="none" xmlns="http://www.w3.org/2000/svg"><mask id="a" style="mask-type:alpha" maskUnits="userSpaceOnUse" x="0" y="0" width="64" height="64"><path d="M32 64c17.673 0 32-14.327 32-32C64 14.327 49.673 0 32 0 14.327 0 0 14.327 0 32c0 17.673 14.327 32 32 32z" fill="#fff"/></mask><g mask="url(#a)"><path d="M0 0h19.475l4.375 31.825L19.475 64H0V0z" fill="#EEE"/><path d="M19.475 0H64v43.138l-22.875 4.675-21.65-4.675V0z" fill="#A2001D"/><path d="M19.475 43.137H64v20.862H19.475V43.137z" fill="#6DA544"/><path d="M6.25.025L2.788 6.25l3.475 6.3 3.475-6.3L6.25.025zm6.975 0L9.75 6.25l3.463 6.3 3.5-6.3L13.225.025zM6.25 17.188l-3.462 6.2L6.263 29.7l3.462-6.312-3.475-6.2zm6.975 0l-3.475 6.2 3.463 6.312 3.5-6.312-3.488-6.2zM6.25 34.338L2.788 40.55l3.475 6.3 3.475-6.3-3.488-6.212zm6.975 0L9.75 40.55l3.463 6.3 3.5-6.3-3.488-6.212zM6.25 51.5l-3.462 6.2 3.475 6.313L9.725 57.7 6.25 51.5zm6.975 0L9.75 57.7l3.463 6.313 3.5-6.313-3.488-6.2z" fill="#A2001D"/></g></svg>