<svg width="64" height="64" fill="none" xmlns="http://www.w3.org/2000/svg"><path fill-rule="evenodd" clip-rule="evenodd" d="M14 6h8v21.079c.41-.965.99-1.93 1.816-2.754 1.595-1.595 3.712-2.278 5.343-2.576a14.863 14.863 0 012.714-.238 8.12 8.12 0 01.229.006h.022c.001 0 .002 0-.054 1l.999-.055v.008l.001.015.002.05a12.328 12.328 0 01-.005.808c-.02.527-.078 1.258-.229 2.085-.298 1.63-.981 3.748-2.576 5.343-1.596 1.595-3.713 2.279-5.343 2.577a14.878 14.878 0 01-2.715.238 8.25 8.25 0 01-.178-.004L22 33.58V58h-8V46.584a14.878 14.878 0 01-2.332-.236c-1.63-.298-3.748-.982-5.343-2.577-1.596-1.595-2.279-3.713-2.577-5.343a14.872 14.872 0 01-.238-2.714 8.215 8.215 0 01.006-.23l.001-.014v-.008l.999.054a148.22 148.22 0 01-.054-.998h.007l.015-.001.051-.002a12.468 12.468 0 01.808.005c.526.02 1.258.077 2.085.229 1.63.298 3.747.98 5.343 2.576A8.101 8.101 0 0114 38.917V23.584a14.88 14.88 0 01-2.332-.236c-1.63-.299-3.748-.982-5.343-2.577-1.596-1.595-2.279-3.713-2.577-5.343a14.872 14.872 0 01-.238-2.714 8.215 8.215 0 01.006-.23l.001-.014v-.008l.999.054a148.22 148.22 0 01-.054-.998h.007l.015-.001.051-.002a12.468 12.468 0 01.808.005c.526.02 1.258.077 2.085.229 1.63.298 3.747.98 5.343 2.576A8.1 8.1 0 0114 15.917V6zm-9.484 6.516l-.998-.055a1 1 0 01.943-.943l.055.998zm0 23l-.999-.055a1 1 0 01.944-.943l.055.998zm27.554-13l.056-.998a1 1 0 01.943.943l-.999.055zM16 8v13h4V8h-4zm4 15h-4v9h4v-9zm0 11h-4v11h4V34zm0 13h-4v9h4v-9zM42 6h8v15.078c.41-.964.991-1.928 1.816-2.753 1.595-1.595 3.712-2.278 5.343-2.576a14.863 14.863 0 012.714-.239 8.103 8.103 0 01.229.007h.022c.001 0 .002 0-.054 1l.999-.055v.008l.001.015.002.05a12.328 12.328 0 01-.005.808 14.88 14.88 0 01-.229 2.085c-.298 1.63-.981 3.748-2.576 5.343-1.596 1.595-3.713 2.278-5.343 2.577a14.878 14.878 0 01-2.715.238 8.25 8.25 0 01-.178-.004L50 27.58V58h-8v-7.416c-.077-.001-.16-.004-.247-.007a14.878 14.878 0 01-2.085-.23c-1.63-.297-3.748-.98-5.343-2.576-1.596-1.595-2.279-3.713-2.577-5.343a14.864 14.864 0 01-.238-2.714l.004-.178.002-.051.001-.015v-.008l.999.054-.054-.998h.007l.015-.001.051-.002a12.468 12.468 0 01.808.005c.526.02 1.258.077 2.085.229 1.63.298 3.748.98 5.343 2.576A8.096 8.096 0 0142 42.917V6zm-9.484 33.516l-.998-.055a1 1 0 01.943-.943l.055.998zM50 26.703l.007-.123-.007.123zm10.07-10.187l.999-.055a1 1 0 00-.944-.943l-.055.998zM44 8v13h4V8h-4zm4 15h-4v9h4v-9zm0 11h-4v11h4V34zm0 13h-4v9h4v-9zM13.38 20.028c.107.584.16 1.115.185 1.537a12.882 12.882 0 01-1.537-.185c-1.449-.265-3.105-.84-4.289-2.023-1.184-1.184-1.759-2.84-2.024-4.289a12.875 12.875 0 01-.184-1.537c.422.025.953.078 1.537.185 1.448.265 3.105.84 4.289 2.023 1.183 1.184 1.758 2.84 2.023 4.29zm.185 24.537a12.881 12.881 0 00-.185-1.537c-.265-1.449-.84-3.105-2.024-4.289-1.183-1.183-2.84-1.758-4.288-2.023a12.88 12.88 0 00-1.538-.185c.026.422.079.953.185 1.537.265 1.449.84 3.105 2.024 4.289 1.184 1.184 2.84 1.758 4.289 2.023.583.107 1.114.16 1.537.185zm27.815 2.463c.107.584.16 1.115.185 1.537a12.881 12.881 0 01-1.537-.185c-1.449-.265-3.105-.84-4.29-2.023-1.183-1.184-1.758-2.84-2.023-4.289a12.861 12.861 0 01-.184-1.537c.422.025.953.078 1.537.185 1.448.265 3.105.84 4.288 2.023 1.184 1.184 1.759 2.84 2.024 4.29zM23.021 31.565c.026-.422.079-.953.185-1.537.265-1.449.84-3.105 2.024-4.289 1.184-1.183 2.84-1.758 4.289-2.023a12.88 12.88 0 011.537-.185c-.025.422-.078.953-.185 1.537-.265 1.449-.84 3.105-2.024 4.289-1.183 1.184-2.84 1.758-4.288 2.023-.584.107-1.115.16-1.538.185zm28.185-7.537a12.86 12.86 0 00-.185 1.537c.423-.025.954-.078 1.538-.185 1.448-.265 3.105-.84 4.288-2.023 1.184-1.184 1.759-2.84 2.024-4.289.107-.584.16-1.115.185-1.537a12.88 12.88 0 00-1.537.185c-1.449.265-3.105.84-4.29 2.023-1.183 1.184-1.758 2.84-2.023 4.29z" fill="#000"/></svg>