<svg width="64" height="64" fill="none" xmlns="http://www.w3.org/2000/svg"><path d="M32.342 13C18.534 13 6.77 21.746 2.283 34L20 40.483C20.895 37.656 24.616 32 32.342 32c7.726 0 11.325 5.7 12.158 8.55L62.401 34c-4.485-12.254-16.25-21-30.059-21z" fill="#fff"/><path fill-rule="evenodd" clip-rule="evenodd" d="M3.298 33.41l16.228 5.95c2.169-4.922 7.09-8.36 12.818-8.36 5.643 0 10.504 3.338 12.72 8.145l15.64-5.734C56.116 22.028 45.022 14 32.002 14c-13.02 0-24.116 8.028-28.704 19.41zm28.699 10.523l-10.589-3.882A12.001 12.001 0 0132.344 33a12 12 0 0110.835 6.836l-11.174 4.098-.005-.002-.003.001zm-2.872 1.077L1.655 34.94l-.937-.344.343-.939C5.686 21.023 17.758 12 32.001 12c14.244 0 26.315 9.023 30.94 21.656l.343.939-.938.344-27.47 10.072 3.475 1.303.966.362-.392.954C37.856 50.23 35.12 52 32 52c-3.12 0-5.856-1.771-6.925-4.37l-.392-.954.966-.362 3.476-1.304zM32 46.068l4.568 1.713C35.628 49.09 33.958 50 32 50c-1.958 0-3.627-.91-4.567-2.22L32 46.069z" fill="#000"/></svg>