<svg width="64" height="64" fill="none" xmlns="http://www.w3.org/2000/svg"><mask id="a" style="mask-type:alpha" maskUnits="userSpaceOnUse" x="0" y="0" width="64" height="64"><path d="M32 64c17.673 0 32-14.327 32-32C64 14.327 49.673 0 32 0 14.327 0 0 14.327 0 32c0 17.673 14.327 32 32 32z" fill="#fff"/></mask><g mask="url(#a)"><path d="M0 0h64v64H0V0z" fill="#EEE"/><path d="M32 45.913c7.684 0 13.912-6.229 13.912-13.913 0-7.683-6.228-13.912-13.912-13.912-7.684 0-13.913 6.229-13.913 13.912 0 7.684 6.23 13.913 13.913 13.913z" fill="#D80027"/></g></svg>