<svg width="267" height="22" fill="none" xmlns="http://www.w3.org/2000/svg"><g clip-path="url(#clip0_2032_576)"><g clip-path="url(#clip1_2032_576)" fill-rule="evenodd" clip-rule="evenodd"><path d="M30.706 2.828h4.33v6.658h.045l4.885-6.658h5.214l-6.005 7.593 6.469 8.715h-5.518l-5.045-7.406h-.045v7.406h-4.33V2.828zm16.916 0h11.702V5.91H51.95v3.364h6.723v3.086H51.95v3.694h7.374v3.083H47.622V2.828zm14.635 0h5.515l5.49 11.072h.047l-.07-11.072h3.953v16.308h-5.373L66.14 7.99h-.04l.136 11.147h-3.978V2.828zM83.312 6.05h-4V2.829h12.33v3.223h-3.998v13.085h-4.332V6.051zm13.495-3.222h5.308l6.257 16.308h-4.746l-1.212-3.484H96.32l-1.28 3.484h-4.396l6.163-16.308zm2.654 3.365h-.047l-2.094 6.374h4.077l-1.936-6.374zm12.055-.143h-4.003V2.829h12.333v3.223h-4.001v13.085h-4.329V6.051zm10.424 9.066c1.12.61 2.677 1.077 4.466 1.077 1.374 0 2.678-.282 2.678-1.59 0-3.04-7.681-1.123-7.681-7.06 0-3.922 3.817-4.996 7.074-4.996 1.562 0 3.094.232 4.188.607l-.277 3.362c-1.118-.51-2.375-.744-3.61-.744-1.092 0-2.908.095-2.908 1.515 0 2.644 7.682.866 7.682 6.755 0 4.228-3.539 5.378-7.146 5.378-1.513 0-3.398-.237-4.84-.705l.374-3.599zm28.409-2.168c0 4.456-2.887 6.467-7.121 6.467-4.233 0-7.116-2.01-7.116-6.467V2.828h4.323v9.393c0 2.149.586 3.972 2.793 3.972 2.21 0 2.791-1.823 2.791-3.972V2.828h4.33v10.12z" fill="#151515"/><path d="M8.054 5.878h5.894v-5.92H8.054v5.92zm0 16.098h5.894v-5.922H8.054v5.922z" fill="#F32424"/><path d="M.026 13.931l5.093-2.98 2.968 5.118-5.099 2.981-2.962-5.119z" fill="#F32424"/><path d="M3.022 2.853l5.084 2.996-2.985 5.112L.035 7.958l2.987-5.105zm18.976 11.078l-5.095-2.98-2.966 5.118 5.095 2.981 2.966-5.119z" fill="#F32424"/><path d="M19 2.853l-5.086 2.996 2.985 5.112 5.086-3.003L19 2.853z" fill="#F32424"/></g></g><path d="M164.426 2.724h-.937v16.555h.937V2.724z" fill="#151515"/><g clip-path="url(#clip2_2032_576)"><path d="M197.682 3.005a8.07 8.07 0 100 16.141 8.07 8.07 0 000-16.141z" fill="#EC1E27"/><path d="M191.303 19.145c-.688-.642-1.482-1.403-1.912-2.25h-8.819c.498-.587 1.508-1.495 2.749-2.465l.963-.79c.913-.749 2.089-1.785 2.66-2.586.825-.963.965-2.429.988-2.959l.009-.185a5.192 5.192 0 00-5.185-5.186 5.192 5.192 0 00-5.186 5.185v.185h2.251V7.91a2.938 2.938 0 012.935-2.934c1.618 0 2.841 1.225 2.929 2.765v.174c0 .37-.116 1.306-.461 1.687l-.043.047-.051.072c-.401.583-1.653 1.724-3.189 2.907l-.439.372c-1.015.816-2.322 1.947-2.942 2.815-.964 1.125-.992 2.94-.992 3.146v.185l1.427-.002v.002h12.308z" fill="#EC1E27"/><path d="M213.296 11.44c-.199 0-.385-.016-.558-.046a2.093 2.093 0 01-.428-.116l.354-1.17c.184.057.35.087.498.092a.642.642 0 00.387-.102c.109-.074.198-.2.266-.376l.092-.24-2.027-5.811h1.647l1.17 4.15h.059l1.181-4.15h1.659L215.4 9.93c-.105.305-.248.57-.428.797-.18.227-.408.402-.682.526-.275.124-.606.186-.994.186zm7.489-2.007c-.581 0-1.081-.119-1.499-.355a2.401 2.401 0 01-.966-1.008c-.226-.435-.338-.95-.338-1.547 0-.595.112-1.09.338-1.53.226-.439.544-.78.955-1.026.411-.245.893-.368 1.447-.368.373 0 .721.059 1.043.178.322.12.605.297.847.535.241.237.429.537.564.896.135.359.202.779.202 1.26v.43h-4.771v-.971h3.296c0-.226-.049-.426-.147-.6a1.064 1.064 0 00-.407-.41 1.18 1.18 0 00-.601-.149 1.22 1.22 0 00-.631.164 1.17 1.17 0 00-.429.438 1.251 1.251 0 00-.158.609v.923c0 .28.052.521.156.725.104.204.252.361.443.471.191.11.418.165.68.165a1.5 1.5 0 00.479-.073.947.947 0 00.606-.582l1.45.096a1.987 1.987 0 01-.45.91c-.227.26-.519.46-.876.603a3.28 3.28 0 01-1.234.216h.001zm5.227-.005c-.36 0-.682-.063-.964-.19a1.528 1.528 0 01-.667-.562c-.163-.25-.245-.56-.245-.933 0-.314.058-.578.173-.79a1.4 1.4 0 01.471-.516 2.26 2.26 0 01.678-.294 5.03 5.03 0 01.801-.14c.329-.034.593-.066.795-.098.201-.03.346-.076.438-.138a.309.309 0 00.136-.272v-.022c0-.233-.073-.413-.219-.54-.146-.128-.352-.192-.619-.192-.282 0-.506.061-.673.186a.87.87 0 00-.331.465l-1.45-.118a1.98 1.98 0 01.434-.891c.216-.252.495-.446.836-.582a3.199 3.199 0 011.19-.203c.314 0 .615.037.904.11.288.073.544.187.769.342.225.154.402.352.532.594.129.241.194.53.194.866v3.81h-1.486v-.782h-.044a1.55 1.55 0 01-.364.465 1.63 1.63 0 01-.548.312 2.23 2.23 0 01-.74.113h-.001zm.449-1.081c.23 0 .434-.046.611-.138.176-.092.314-.216.416-.373a.97.97 0 00.15-.534v-.6a.783.783 0 01-.201.087c-.084.025-.18.05-.285.07-.105.02-.211.04-.316.055l-.287.042c-.184.027-.344.07-.482.129a.772.772 0 00-.319.237.585.585 0 00-.114.37c0 .214.078.376.233.487.155.112.353.168.594.168zm3.951.974v-5.65h1.519v.987h.059c.103-.351.276-.617.519-.797.242-.18.523-.27.839-.27a2.358 2.358 0 01.493.055v1.39a2.722 2.722 0 00-.662-.085c-.23 0-.436.05-.617.15a1.1 1.1 0 00-.426.414c-.105.176-.156.38-.156.61v3.197h-1.568zm8.935-4.039l-1.435.088a.749.749 0 00-.158-.333.876.876 0 00-.318-.239 1.126 1.126 0 00-.47-.09c-.242 0-.447.05-.613.153-.167.102-.25.237-.25.407 0 .134.054.249.162.341.107.093.293.168.555.225l1.022.206c.549.113.96.294 1.229.544.27.25.404.579.404.986 0 .371-.108.696-.325.975-.217.28-.514.497-.89.653-.376.156-.81.234-1.3.234-.748 0-1.344-.156-1.786-.47a1.81 1.81 0 01-.778-1.278l1.541-.08a.783.783 0 00.338.52c.179.119.409.178.688.178.28 0 .496-.054.664-.16.168-.107.253-.245.256-.414a.44.44 0 00-.18-.35c-.118-.092-.299-.164-.544-.212l-.979-.195c-.552-.11-.962-.301-1.23-.573-.268-.272-.403-.62-.403-1.042 0-.363.099-.675.296-.937.197-.263.476-.465.835-.608.359-.142.781-.213 1.264-.213.713 0 1.275.15 1.686.452.411.302.651.713.719 1.233zm-24.466 13.184c-.571 0-1.065-.121-1.481-.366a2.477 2.477 0 01-.962-1.022c-.226-.438-.339-.946-.339-1.524 0-.579.113-1.095.339-1.532a2.48 2.48 0 01.962-1.023c.416-.244.909-.365 1.481-.365.572 0 1.065.121 1.481.365.416.245.736.586.962 1.023.226.438.339.948.339 1.532 0 .583-.113 1.087-.339 1.524a2.472 2.472 0 01-.962 1.023c-.416.244-.909.365-1.481.365zm.007-1.214c.26 0 .477-.073.651-.222.174-.149.306-.351.395-.61.09-.257.134-.55.134-.879 0-.328-.045-.622-.134-.879a1.38 1.38 0 00-.395-.61.964.964 0 00-.651-.225.995.995 0 00-.66.224c-.177.15-.311.354-.401.611a2.68 2.68 0 00-.134.88c0 .328.045.62.134.879.09.257.224.46.401.609a.994.994 0 00.66.222zm6.835-4.545v1.177h-3.487v-1.177h3.487zm-2.69 5.65v-6.059c0-.409.081-.75.241-1.019.161-.27.381-.472.66-.607a2.17 2.17 0 01.953-.202c.24 0 .46.018.66.055.199.037.348.07.447.1l-.28 1.176a1.947 1.947 0 00-.226-.055 1.443 1.443 0 00-.273-.026c-.231 0-.392.054-.482.16-.091.108-.136.256-.136.448v6.029h-1.564zm10.75-4.04l-1.435.088a.75.75 0 00-.159-.333.851.851 0 00-.318-.24 1.118 1.118 0 00-.469-.09c-.242 0-.448.051-.614.153-.167.102-.25.238-.25.407 0 .135.055.249.162.342.108.092.294.167.556.224l1.022.206c.549.113.959.294 1.229.544.269.25.404.579.404.987 0 .37-.108.695-.325.974-.217.28-.514.497-.89.654-.377.156-.81.233-1.301.233-.747 0-1.342-.156-1.785-.47a1.815 1.815 0 01-.779-1.278l1.541-.08c.047.228.16.401.339.52.179.119.408.178.688.178.279 0 .496-.053.664-.16.167-.107.253-.245.255-.414a.434.434 0 00-.18-.35c-.117-.092-.299-.163-.544-.212l-.978-.195c-.552-.11-.962-.301-1.231-.573-.268-.272-.402-.62-.402-1.042 0-.363.098-.675.295-.937.198-.262.476-.464.835-.607.36-.143.781-.214 1.264-.214.713 0 1.275.151 1.686.453.411.301.651.712.719 1.232h.001zm4.741 1.633v-3.244h1.567v5.65h-1.505v-1.027h-.059a1.667 1.667 0 01-.634.799c-.296.2-.656.301-1.08.301a1.9 1.9 0 01-.997-.257 1.753 1.753 0 01-.671-.732c-.161-.317-.243-.696-.245-1.137v-3.598h1.567v3.318c.002.333.092.597.269.79.176.194.413.291.71.291.189 0 .365-.043.53-.13a1.01 1.01 0 00.399-.388c.102-.172.151-.384.149-.636zm5.371 2.516c-.579 0-1.076-.123-1.492-.37a2.46 2.46 0 01-.957-1.028c-.222-.439-.332-.944-.332-1.515 0-.572.112-1.088.336-1.525.225-.437.545-.78.959-1.026.414-.247.907-.37 1.478-.37.493 0 .925.09 1.295.269.371.179.664.43.88.754.215.324.334.704.356 1.14h-1.479a1.155 1.155 0 00-.329-.681c-.178-.173-.411-.26-.697-.26-.243 0-.455.066-.635.196a1.28 1.28 0 00-.421.572c-.101.25-.151.553-.151.91 0 .355.05.666.149.919.099.252.24.445.422.578.181.132.393.198.636.198.179 0 .34-.037.484-.11a.929.929 0 00.356-.322c.095-.141.157-.31.186-.51h1.479a2.306 2.306 0 01-.351 1.139c-.21.327-.498.582-.867.767-.368.184-.802.276-1.305.276v-.001zm6.084 0c-.578 0-1.075-.123-1.491-.37a2.46 2.46 0 01-.957-1.028c-.222-.439-.333-.944-.333-1.515 0-.572.112-1.088.337-1.525a2.49 2.49 0 01.958-1.026c.415-.247.908-.37 1.479-.37.493 0 .924.09 1.295.269.371.179.663.43.879.754.217.324.335.704.357 1.14h-1.478a1.156 1.156 0 00-.33-.681c-.177-.173-.41-.26-.697-.26-.242 0-.454.066-.634.196a1.28 1.28 0 00-.422.572c-.101.25-.15.553-.15.91 0 .355.049.666.149.919.099.252.24.445.421.578.182.132.394.198.636.198.179 0 .34-.037.484-.11a.939.939 0 00.357-.322c.094-.141.156-.31.186-.51h1.478a2.316 2.316 0 01-.351 1.139 2.145 2.145 0 01-.866.767c-.368.184-.803.276-1.306.276l-.001-.001zm6.106 0c-.581 0-1.08-.118-1.499-.355a2.4 2.4 0 01-.965-1.008c-.226-.435-.339-.95-.339-1.546 0-.596.113-1.092.339-1.53a2.5 2.5 0 01.955-1.027c.411-.245.893-.368 1.447-.368.373 0 .72.059 1.043.178.323.12.605.298.846.535.242.238.43.537.565.896.135.36.202.779.202 1.26v.43h-4.771v-.97h3.296c0-.227-.049-.427-.147-.6a1.071 1.071 0 00-.407-.411 1.185 1.185 0 00-.602-.149 1.176 1.176 0 00-1.059.602 1.24 1.24 0 00-.158.609v.924c0 .279.051.52.156.724.104.204.252.361.443.471.191.11.418.166.68.166.174 0 .334-.025.478-.074a.99.99 0 00.372-.22.973.973 0 00.236-.361l1.449.095a1.979 1.979 0 01-.451.91c-.227.26-.518.46-.875.604a3.283 3.283 0 01-1.234.215zm8.318-4.149l-1.435.088a.749.749 0 00-.158-.333.867.867 0 00-.318-.24 1.126 1.126 0 00-.47-.09c-.242 0-.448.051-.614.153-.166.102-.249.238-.249.407 0 .135.054.249.161.342.108.092.294.167.556.224l1.022.206c.549.113.959.294 1.229.544.269.25.404.579.404.987 0 .37-.108.695-.325.974-.217.28-.514.497-.89.654-.377.156-.81.233-1.3.233-.748 0-1.343-.156-1.786-.47a1.81 1.81 0 01-.778-1.278l1.541-.08a.78.78 0 00.338.52c.179.119.409.178.688.178.279 0 .496-.053.664-.16.168-.107.253-.245.256-.414a.439.439 0 00-.18-.35c-.118-.093-.3-.163-.544-.212l-.979-.195c-.552-.11-.962-.301-1.23-.573-.269-.272-.403-.62-.403-1.042 0-.363.098-.675.296-.937.197-.262.476-.464.835-.607.359-.143.78-.214 1.263-.214.713 0 1.275.151 1.686.453.411.301.651.712.719 1.232h.001zm5.819 0l-1.434.088a.762.762 0 00-.159-.333.867.867 0 00-.318-.24 1.124 1.124 0 00-.469-.09c-.243 0-.448.051-.614.153-.167.102-.25.238-.25.407 0 .135.054.249.162.342.107.092.293.167.555.224l1.023.206c.549.113.959.294 1.228.544.27.25.405.579.405.987 0 .37-.109.695-.326.974a2.13 2.13 0 01-.89.654 3.38 3.38 0 01-1.3.233c-.748 0-1.343-.156-1.786-.47a1.81 1.81 0 01-.778-1.278l1.541-.08a.783.783 0 00.338.52c.18.119.409.178.688.178.28 0 .497-.053.664-.16.168-.107.253-.245.256-.414a.439.439 0 00-.18-.35c-.118-.093-.299-.163-.544-.212l-.979-.195c-.551-.11-.961-.301-1.23-.573-.269-.272-.403-.62-.403-1.042 0-.363.099-.675.296-.937.197-.262.476-.464.835-.607.359-.143.781-.214 1.263-.214.713 0 1.276.151 1.687.453.41.301.65.712.719 1.232z" fill="#000"/></g><defs><clipPath id="clip0_2032_576"><path fill="#fff" d="M0 0h150.333v22H0z"/></clipPath><clipPath id="clip1_2032_576"><path fill="#fff" d="M0 0h150.333v22H0z"/></clipPath><clipPath id="clip2_2032_576"><path fill="#fff" transform="translate(177.568 2.724)" d="M0 0h88.784v16.422H0z"/></clipPath></defs></svg>