<svg width="147" height="22" fill="none" xmlns="http://www.w3.org/2000/svg"><g clip-path="url(#clip0_219_585)"><path d="M30.005 2.802h4.231V9.3h.046l4.778-6.5h5.097l-5.872 7.412 6.327 8.506h-5.396l-4.937-7.23h-.045v7.23h-4.232l.003-15.917zm16.539 0h11.191V5.81h-6.963v3.287h6.577v3.01h-6.577v3.603h7.213v3.01H46.54l.003-15.918zm14.312 0h5.396l5.37 10.81h.044l-.068-10.81h3.869v15.917H70.21L64.66 7.841h-.046l.137 10.878H60.86l-.003-15.917zm20.59 3.148h-3.914V2.801h12.06v3.147h-3.914V18.72h-4.232V5.95zm15.791.136h-.044l-2.046 6.225h3.975l-1.885-6.225zm-2.593-3.284h5.186l6.121 15.917h-4.64l-1.184-3.397h-5.963l-1.25 3.397h-4.3l6.03-15.917zm14.382 3.148h-3.914V2.801h12.06v3.147h-3.914V18.72h-4.232V5.95zm10.195 8.847a9.283 9.283 0 004.368 1.048c1.344 0 2.618-.274 2.618-1.55 0-2.965-7.51-1.096-7.51-6.887 0-3.832 3.732-4.882 6.918-4.882a13.43 13.43 0 014.093.593l-.273 3.285a8.515 8.515 0 00-3.526-.73c-1.071 0-2.844.093-2.844 1.482 0 2.578 7.509.84 7.509 6.591 0 4.129-3.46 5.246-6.987 5.246-1.602 0-3.196-.23-4.732-.684l.366-3.512zM147 12.676c0 4.356-2.821 6.318-6.961 6.318-4.14 0-6.963-1.958-6.963-6.318V2.801h4.231v9.168c0 2.098.569 3.878 2.732 3.878 2.163 0 2.73-1.78 2.73-3.878V2.801H147v9.875z" fill="#151515"/><path d="M13.618 0H7.853v5.782h5.765V0zm0 15.712H7.853v5.784h5.765v-5.784z" fill="#E50019"/><path d="M4.982 10.734L0 13.642l2.9 4.991 4.981-2.907-2.899-4.992z" fill="#E50019"/><path d="M2.932 2.825L.012 7.811l4.973 2.926 2.92-4.986-4.973-2.926zm13.573 7.907l-2.899 4.995 4.986 2.907 2.898-4.995-4.985-2.907z" fill="#E50019"/><path d="M18.56 2.826l-4.975 2.926 2.919 4.986 4.974-2.926-2.919-4.986z" fill="#E50019"/></g><defs><clipPath id="clip0_219_585"><path fill="#fff" d="M0 0h147v21.495H0z"/></clipPath></defs></svg>