<svg width="200" height="30" fill="none" xmlns="http://www.w3.org/2000/svg"><g clip-path="url(#clip0_105_749)"><path d="M40.823 3.812h5.757v8.842h.062l6.501-8.842h6.934L52.09 13.895l8.607 11.573h-7.341l-6.717-9.836h-.062v9.836H40.82l.004-21.656zm22.502 0h15.227v4.093h-9.474v4.471h8.949v4.096h-8.948v4.901h9.812v4.096h-15.57l.004-21.657zm19.473 0h7.341l7.307 14.708h.06l-.093-14.708h5.263v21.656h-7.15l-7.555-14.8h-.062l.186 14.8h-5.294l-.003-21.656zm28.013 4.282h-5.325V3.812h16.408v4.282h-5.326v17.375h-5.757V8.094zm21.484.187h-.059l-2.785 8.47h5.409l-2.565-8.47zm-3.528-4.469h7.056l8.328 21.657h-6.313l-1.611-4.623h-8.113l-1.701 4.623h-5.85l8.204-21.657zm19.568 4.282h-5.325V3.812h16.408v4.282h-5.326v17.375h-5.757V8.094zm13.87 12.038a12.625 12.625 0 005.943 1.426c1.828 0 3.562-.373 3.562-2.11 0-4.034-10.218-1.491-10.218-9.37 0-5.213 5.078-6.642 9.412-6.642 1.887-.02 3.765.252 5.569.807l-.372 4.47a11.58 11.58 0 00-4.797-.994c-1.457 0-3.869.127-3.869 2.017 0 3.507 10.216 1.142 10.216 8.967 0 5.617-4.707 7.137-9.505 7.137a22.674 22.674 0 01-6.44-.93l.499-4.778zM200 17.247c0 5.926-3.838 8.596-9.471 8.596s-9.473-2.665-9.473-8.596V3.81h5.757v12.474c0 2.855.773 5.276 3.716 5.276s3.714-2.421 3.714-5.276V3.81H200v13.436z" fill="#fff"/><path d="M18.528 0h-7.843v7.867h7.843V0zm0 21.377h-7.843v7.869h7.843v-7.87z" fill="#E50019"/><path d="M6.779 14.605L0 18.56l3.944 6.792 6.779-3.956-3.944-6.791z" fill="#E50019"/><path d="M3.989 3.844L.016 10.627l6.766 3.981 3.973-6.783-6.766-3.981zm18.467 10.757l-3.943 6.796 6.782 3.955 3.944-6.795-6.783-3.955z" fill="#E50019"/><path d="M25.25 3.845l-6.768 3.981 3.972 6.784 6.767-3.981-3.971-6.784z" fill="#E50019"/></g><defs><clipPath id="clip0_105_749"><path fill="#fff" d="M0 0h200v29.245H0z"/></clipPath></defs></svg>