<svg width="64" height="64" fill="none" xmlns="http://www.w3.org/2000/svg"><mask id="a" style="mask-type:alpha" maskUnits="userSpaceOnUse" x="0" y="0" width="64" height="64"><path d="M32 64c17.673 0 32-14.327 32-32C64 14.327 49.673 0 32 0 14.327 0 0 14.327 0 32c0 17.673 14.327 32 32 32z" fill="#fff"/></mask><g mask="url(#a)"><path d="M0 0h64v64H0V0z" fill="#338AF3"/><path d="M50.087 32.35H13.913c0 2.5 2.175 4.525 4.675 4.525h-.15c0 2.5 2.025 4.512 4.525 4.512 0 2.5 2.013 4.525 4.513 4.525h9.05c2.5 0 4.513-2.025 4.513-4.525 2.5 0 4.525-2.025 4.525-4.512h-.15c2.5 0 4.675-2.025 4.675-4.525z" fill="#FFDA44"/><path d="M44.525 26.438a12.525 12.525 0 01-25.05 0" fill="#338AF3"/><path d="M41.563 26.438l-3.913 1.837 2.087 3.788-4.25-.813-.537 4.288L32 32.375l-2.95 3.163-.55-4.288-4.25.813 2.075-3.788-3.9-1.837 3.9-1.838-2.075-3.787 4.25.812.538-4.287 2.95 3.15 2.95-3.15.562 4.287 4.25-.812-2.075 3.787 3.888 1.838z" fill="#FFDA44"/></g></svg>