<svg width="120" height="120" fill="none" xmlns="http://www.w3.org/2000/svg"><path fill-rule="evenodd" clip-rule="evenodd" d="M20 24a2 2 0 012-2h72a2 2 0 012 2v27.5h-2V29.84L59.088 52.487a2 2 0 01-2.176 0L22 29.841V76h46.5v2H22a2 2 0 01-2-2V24zm2 3.457l36 23.351 36-23.351V24H22v3.457zM6 46v46h49.5v2H6a2 2 0 01-2-2V46h2zm99.707 30.707L96.414 86a2 2 0 01-2.828 0l-5.293-5.293 1.414-1.414L95 84.586l9.293-9.293 1.414 1.414zM80 80c0-9.389 7.611-17 17-17s17 7.611 17 17-7.611 17-17 17-17-7.611-17-17zm17-19c-10.493 0-19 8.507-19 19s8.507 19 19 19 19-8.507 19-19-8.507-19-19-19z" fill="#F32424"/></svg>