<svg width="64" height="64" fill="none" xmlns="http://www.w3.org/2000/svg"><mask id="a" style="mask-type:alpha" maskUnits="userSpaceOnUse" x="0" y="0" width="64" height="64"><path d="M32 64c17.673 0 32-14.327 32-32C64 14.327 49.673 0 32 0 14.327 0 0 14.327 0 32c0 17.673 14.327 32 32 32z" fill="#fff"/></mask><g mask="url(#a)"><path d="M0 18.088l31.913-4.563L64 18.088v27.825l-32.688 4.962L0 45.913V18.088z" fill="#EEE"/><path d="M0 0h64v18.087H0V0z" fill="#D80027"/><path d="M0 45.912h64V64H0V45.912z" fill="#6DA544"/><path d="M26.438 40.375h11.125v-4.75l-2.226 1.125L32 33.387l-3.337 3.338-2.226-1.113v4.763zM20.063 34.8l.524 1.587h1.663l-1.363 1 .526 1.588-1.363-1-1.35 1 .512-1.6-1.337-.988h1.675l.512-1.587zm1.612-5.575l.512 1.6h1.688l-1.35 1 .513 1.575-1.35-.988-1.363 1 .525-1.6-1.363-1h1.676l.512-1.587zm4.587-4.175l.526 1.6h1.674l-1.362 1 .525 1.575-1.375-.963-1.35.975.513-1.587-1.35-.988h1.687l.512-1.612zm17.675 9.75l-.524 1.587H41.75l1.362 1-.525 1.588 1.363-1 1.35 1-.512-1.6 1.337-.988H44.45l-.513-1.587zm-1.612-5.575l-.513 1.6h-1.687l1.35 1-.513 1.575 1.35-.988 1.363 1-.525-1.6 1.363-1h-1.675l-.513-1.587zM37.75 25.05l-.525 1.6H35.55l1.363 1-.525 1.575 1.362-.963 1.35.975-.513-1.587 1.35-.988H38.25l-.5-1.612zM32 22.975l.513 1.587H34.2l-1.363 1 .513 1.575-1.35-.975-1.35.975.513-1.587-1.363-.988h1.7l.5-1.587z" fill="#FFDA44"/></g></svg>